<svg xmlns="http://www.w3.org/2000/svg" width="56" height="45" viewBox="0 0 56 45">
    <path fill="#FFF" fill-rule="evenodd" d="M19.12 37.988c.386 0 .765.123 1.08.356a12.692 12.692 0 0 0 7.575 2.502c3.421 0 6.638-1.333 9.054-3.756.371-.37.87-.57 1.404-.53l.206.014c.211.014.424.03.638.03 7.055 0 12.794-5.74 12.794-12.794 0-4.25-2.105-8.215-5.631-10.602a1.812 1.812 0 0 1-.7-.917 12.79 12.79 0 0 0-12.096-8.655c-2.585 0-5.075.77-7.204 2.223-.54.37-1.235.42-1.822.134-1.77-.863-3.65-1.3-5.586-1.3-7.028 0-12.766 5.718-12.791 12.746-.001.354-.106.7-.3.994a12.736 12.736 0 0 0-2.105 7.02c0 7.054 5.74 12.793 12.794 12.793.764 0 1.535-.074 2.36-.227.11-.02.22-.03.33-.03m8.655 6.494c-3.257 0-6.384-.953-9.091-2.763-.768.11-1.511.163-2.254.163-9.06 0-16.43-7.37-16.43-16.43 0-3.034.834-5.983 2.415-8.565.317-8.778 7.57-15.832 16.417-15.832 2.15 0 4.243.418 6.233 1.241A16.338 16.338 0 0 1 33.444 0c6.815 0 12.9 4.214 15.329 10.545a16.42 16.42 0 0 1 6.734 13.265c0 9.06-7.37 16.43-16.43 16.43-.092 0-.186 0-.278-.005a16.31 16.31 0 0 1-11.024 4.248"/>
</svg>
