<svg xmlns="http://www.w3.org/2000/svg" width="50" height="55" viewBox="0 0 50 55">
    <path fill="#FFF" fillRule="evenodd" d="M12.1 50.922a3.52 3.52 0 1 0 7.042 0c0-1.945-3.521-6.721-3.521-6.721s-3.52 4.776-3.52 6.72m22.497-18.716c-.19 0-.377-.014-.563-.028l-.16-.01a1.762 1.762 0 0 0-1.408.528 10.969 10.969 0 0 1-7.812 3.242c-2.36 0-4.62-.747-6.535-2.159a1.815 1.815 0 0 0-1.412-.324 11.01 11.01 0 0 1-2.034.195c-6.087 0-11.038-4.95-11.038-11.037 0-2.157.629-4.251 1.817-6.057.193-.294.297-.64.299-.992.022-6.064 4.972-10.997 11.034-10.997 1.67 0 3.292.378 4.82 1.121a1.813 1.813 0 0 0 1.822-.132 10.967 10.967 0 0 1 6.214-1.919c4.713 0 8.905 3.001 10.434 7.468.129.373.374.696.701.917a11.036 11.036 0 0 1 4.858 9.147c0 6.086-4.95 11.037-11.037 11.037M43.31 9.358A14.669 14.669 0 0 0 29.642 0c-2.617 0-5.15.687-7.39 1.997A14.459 14.459 0 0 0 16.787.93C8.906.93 2.44 7.198 2.127 15.012A14.603 14.603 0 0 0 0 22.612c0 8.092 6.582 14.673 14.674 14.673.629 0 1.275-.044 1.929-.132a14.53 14.53 0 0 0 8.052 2.42c3.644 0 7.086-1.32 9.78-3.734l.163.002c8.092 0 14.674-6.582 14.674-14.673 0-4.674-2.217-9.045-5.963-11.81"/>
</svg>
