<svg xmlns="http://www.w3.org/2000/svg" width="41" height="51" viewBox="0 0 41 51">
    <path fill="#FFF" fillRule="evenodd" d="M33.94 46.615H1.817a1.818 1.818 0 0 0 0 3.636H33.94a1.819 1.819 0 0 0 0-3.636m3.03-8.854H4.85a1.818 1.818 0 0 0 0 3.637h32.12a1.819 1.819 0 0 0 0-3.637M6.624 13.49c.194-.295.299-.64.3-.993.016-4.487 3.679-8.137 8.165-8.137 1.236 0 2.436.279 3.566.83a1.814 1.814 0 0 0 1.82-.134 8.13 8.13 0 0 1 4.599-1.418c3.486 0 6.589 2.22 7.72 5.525.128.374.373.695.701.917a8.168 8.168 0 0 1 3.595 6.769c0 4.502-3.664 8.165-8.167 8.165-.136 0-.27-.01-.404-.019l-.134-.01a1.802 1.802 0 0 0-1.405.53 8.11 8.11 0 0 1-5.78 2.4 8.106 8.106 0 0 1-4.835-1.6 1.815 1.815 0 0 0-1.412-.324 8.106 8.106 0 0 1-1.506.146c-4.502 0-8.166-3.665-8.166-8.167a8.12 8.12 0 0 1 1.343-4.48m6.823 16.283c.458 0 .928-.03 1.403-.088a11.683 11.683 0 0 0 6.35 1.865c2.878 0 5.6-1.023 7.748-2.9 6.497-.012 11.778-5.302 11.778-11.801 0-3.721-1.746-7.202-4.701-9.43a11.8 11.8 0 0 0-16.723-5.91 11.636 11.636 0 0 0-4.213-.785C8.785.723 3.605 5.71 3.302 11.945a11.74 11.74 0 0 0-1.657 6.024c0 6.508 5.294 11.803 11.802 11.803"/>
</svg>
