<svg xmlns="http://www.w3.org/2000/svg" width="29" height="35" viewBox="0 0 29 35">
    <path fill="#FFF" fillRule="evenodd" d="M17.05 3.636c-7.396 0-13.414 6.018-13.414 13.414 0 7.397 6.018 13.415 13.414 13.415 2.38 0 4.715-.64 6.755-1.829a16.981 16.981 0 0 1-4.542-11.586c0-4.34 1.632-8.45 4.543-11.585a13.447 13.447 0 0 0-6.756-1.829m0 30.465C7.648 34.1 0 26.45 0 17.05 0 7.648 7.648 0 17.05 0c3.92 0 7.75 1.365 10.782 3.845a1.82 1.82 0 0 1 0 2.816A13.372 13.372 0 0 0 22.9 17.05c0 4.04 1.798 7.826 4.934 10.39a1.82 1.82 0 0 1-.001 2.815 17.082 17.082 0 0 1-10.782 3.846"/>
</svg>
