<svg xmlns="http://www.w3.org/2000/svg" width="49" height="47" viewBox="0 0 49 47">
    <path fill="#FFF" fill-rule="evenodd" d="M43.753 20.786c-.89.439-1.85.725-2.85.85-.005-.009-.012-.015-.018-.022-.331-.42-.686-.82-1.068-1.2-.032-.031-.06-.066-.092-.098-.404-.391-.83-.764-1.287-1.105-.15-.385-.325-.756-.51-1.12-.063-.124-.129-.245-.194-.366a13.473 13.473 0 0 0-.42-.71c-.08-.128-.158-.259-.243-.384-.2-.292-.41-.576-.631-.85-.132-.163-.273-.318-.413-.476a13.73 13.73 0 0 0-.837-.864c-.102-.096-.21-.185-.315-.276-.31-.273-.632-.53-.969-.771-.126-.092-.251-.184-.381-.27a11.81 11.81 0 0 0-1.09-.65c-.186-.099-.37-.2-.56-.29-.308-.146-.621-.279-.94-.4-.054-.021-.105-.049-.16-.07.48-4.534 4.328-8.078 8.988-8.078a8.94 8.94 0 0 1 3.992.925 12.626 12.626 0 0 0-2.938 8.114c0 3 1.05 5.852 2.936 8.111M30.609 39.18c-.158 0-.314-.012-.469-.023l-.155-.01a1.8 1.8 0 0 0-1.403.53 9.406 9.406 0 0 1-6.701 2.778c-2.024 0-3.961-.64-5.603-1.851a1.813 1.813 0 0 0-1.413-.325c-.608.114-1.179.17-1.744.17-5.22 0-9.465-4.247-9.465-9.465 0-1.85.538-3.647 1.557-5.194.193-.295.299-.64.3-.993.019-5.2 4.263-9.43 9.462-9.43 1.433 0 2.823.324 4.132.962a1.824 1.824 0 0 0 1.823-.134 9.412 9.412 0 0 1 8.585-1.058c.063.023.126.045.188.07.335.132.663.281.98.45l.058.032a9.597 9.597 0 0 1 3.973 4.105l.069.142c.159.33.303.67.423 1.02.128.373.375.695.701.916.29.195.56.41.822.633.126.109.247.225.368.34a8.964 8.964 0 0 1 .808.865c.029.035.055.07.083.105.18.227.353.461.516.707.004.007.01.013.016.019a9.45 9.45 0 0 1 1.554 5.174c0 5.22-4.247 9.465-9.465 9.465m13.845-26.505a9.012 9.012 0 0 1 3.324-7.001 1.817 1.817 0 0 0 0-2.816A12.707 12.707 0 0 0 39.763 0C33.36 0 28.065 4.776 27.219 10.95a13.023 13.023 0 0 0-7.463 1.692 12.905 12.905 0 0 0-4.78-.912c-7.017 0-12.779 5.566-13.087 12.516A13.043 13.043 0 0 0 .02 30.984c0 7.223 5.876 13.1 13.1 13.1.536 0 1.085-.036 1.642-.108a12.97 12.97 0 0 0 7.119 2.116c3.225 0 6.273-1.157 8.668-3.276h.06c7.224 0 13.101-5.876 13.101-13.1 0-1.651-.322-3.254-.904-4.749 1.811-.442 3.5-1.272 4.972-2.475a1.817 1.817 0 0 0 0-2.816 9.014 9.014 0 0 1-3.324-7.001"/>
</svg>
