<svg xmlns="http://www.w3.org/2000/svg" width="57" height="54" viewBox="0 0 57 54">
    <path fill="#FFF" fill-rule="evenodd" d="M42.108 9.457a1.82 1.82 0 0 0 2.484-.665l2.349-4.07a1.819 1.819 0 0 0-3.15-1.818l-1.174 2.034-1.174 2.035a1.819 1.819 0 0 0 .665 2.484zm14.317 6.007a1.816 1.816 0 0 0-2.228-1.285l-4.537 1.217a1.82 1.82 0 0 0 .47 3.575c.155 0 .315-.02.473-.063l4.537-1.216a1.82 1.82 0 0 0 1.285-2.228zm-2.842 14.047l-4.068-2.348a1.815 1.815 0 0 0-2.728 1.571c0 .628.326 1.24.908 1.576l4.07 2.35a1.815 1.815 0 0 0 2.727-1.573c0-.628-.326-1.24-.91-1.576zM17.185 12.696l4.069 2.348a1.818 1.818 0 0 0 1.817-3.15l-4.068-2.347a1.819 1.819 0 0 0-1.818 3.149zm12.491-5.87a1.819 1.819 0 1 0 3.512-.94l-1.215-4.537a1.818 1.818 0 1 0-3.513.94l1.216 4.538zm9.755 20.589c-.273-.253-.56-.484-.85-.71-.056-.043-.105-.094-.162-.136-.116-.293-.244-.58-.378-.861-.043-.089-.09-.174-.135-.261a13.26 13.26 0 0 0-.299-.563c-.058-.102-.119-.2-.179-.3a13.571 13.571 0 0 0-.514-.785c-.111-.157-.226-.31-.343-.461-.072-.092-.143-.184-.217-.275a13.09 13.09 0 0 0-.391-.45c-.071-.08-.14-.16-.213-.237-.164-.173-.333-.34-.505-.502-.047-.045-.092-.094-.14-.138a13.344 13.344 0 0 0-.691-.593c-.057-.045-.116-.085-.172-.129-.183-.142-.367-.28-.557-.412-.088-.06-.179-.117-.268-.176a10.137 10.137 0 0 0-.804-.487 12.363 12.363 0 0 0-1.341-.652c-.107-.045-.213-.091-.32-.132a14.42 14.42 0 0 0-.586-.208c-.093-.031-.185-.066-.28-.095-.291-.089-.586-.17-.884-.24l-.057-.012c-.257-.058-.515-.11-.777-.153a7.482 7.482 0 0 1 7.016-4.843c4.134 0 7.499 3.365 7.499 7.5a7.496 7.496 0 0 1-3.452 6.31zm-8.842 19.124c-.157 0-.313-.013-.467-.023l-.157-.011a1.805 1.805 0 0 0-1.404.53 9.398 9.398 0 0 1-6.7 2.779 9.38 9.38 0 0 1-5.603-1.853 1.82 1.82 0 0 0-1.413-.323 9.385 9.385 0 0 1-1.743.169c-5.22 0-9.466-4.247-9.466-9.466 0-1.85.539-3.645 1.558-5.192.194-.296.298-.641.3-.994.018-5.2 4.263-9.43 9.462-9.43 1.432 0 2.822.324 4.132.962a1.815 1.815 0 0 0 1.823-.133 9.399 9.399 0 0 1 5.212-1.64.88.88 0 0 0 .116-.005 9.462 9.462 0 0 1 8.948 6.404c.128.374.374.696.701.917a9.487 9.487 0 0 1 1.82 1.623c.007.008.016.014.023.021a9.45 9.45 0 0 1 2.324 6.2c0 5.218-4.247 9.465-9.466 9.465zm15.93-25.435c0-6.14-4.995-11.136-11.135-11.136a11.101 11.101 0 0 0-10.785 8.409c-1.714.214-3.36.762-4.863 1.624a12.9 12.9 0 0 0-4.78-.912c-7.017 0-12.779 5.566-13.086 12.515A13.042 13.042 0 0 0 0 38.341c0 7.225 5.877 13.102 13.102 13.102.535 0 1.084-.036 1.64-.109a12.964 12.964 0 0 0 7.12 2.116 13.01 13.01 0 0 0 8.667-3.275h.06c7.225 0 13.102-5.877 13.102-13.101 0-2.455-.701-4.808-1.946-6.84a11.127 11.127 0 0 0 4.774-9.13z"/>
</svg>
