<svg xmlns="http://www.w3.org/2000/svg" width="50" height="59" viewBox="0 0 50 59">
    <path fill="#FFF" fillRule="evenodd" d="M25.485 43.443a1.819 1.819 0 0 0-1.819 1.818v5.304a1.819 1.819 0 0 0 3.637 0V45.26a1.819 1.819 0 0 0-1.818-1.818m-10.455-1.06a1.818 1.818 0 0 0-1.818 1.818v12.727a1.819 1.819 0 0 0 3.636 0V44.201a1.818 1.818 0 0 0-1.818-1.818M34.6 32.205c-.192 0-.38-.015-.566-.029l-.16-.01c-.02-.001-.04.003-.061.001-.02 0-.038-.005-.06-.005-.033 0-.065.008-.098.01-.086.003-.17.009-.252.025l-.065.017c-.096.022-.19.049-.282.088-.028.012-.053.028-.081.042a1.723 1.723 0 0 0-.506.35l-.002.001a10.966 10.966 0 0 1-7.812 3.241c-2.36 0-4.62-.746-6.535-2.159a1.814 1.814 0 0 0-1.412-.323c-.707.13-1.373.195-2.034.195-6.086 0-11.038-4.952-11.038-11.037 0-2.157.629-4.251 1.817-6.057.193-.294.297-.64.299-.993.022-6.063 4.973-10.997 11.035-10.997 1.67 0 3.291.378 4.818 1.122a1.813 1.813 0 0 0 1.823-.133 10.967 10.967 0 0 1 6.214-1.918c4.713 0 8.906 3.001 10.434 7.468.129.373.374.695.701.917a11.036 11.036 0 0 1 4.86 9.146c0 6.086-4.952 11.038-11.038 11.038m8.71-22.847a14.666 14.666 0 0 0-21.056-7.362A14.472 14.472 0 0 0 16.787.93C8.907.93 2.44 7.2 2.127 15.012A14.601 14.601 0 0 0 0 22.612c0 8.09 6.583 14.673 14.674 14.673.629 0 1.275-.044 1.929-.133a14.531 14.531 0 0 0 8.052 2.42c2.598 0 5.087-.681 7.28-1.94V44.2a1.819 1.819 0 0 0 3.637 0v-8.41c7.637-.505 13.7-6.861 13.7-14.624 0-4.674-2.217-9.044-5.963-11.809"/>
</svg>
