<svg xmlns="http://www.w3.org/2000/svg" width="60" height="60" viewBox="0 0 60 60">
    <path fill="#FFF" fill-rule="evenodd" d="M45.494 3.164a1.952 1.952 0 0 0-2.667.714L41.12 6.837l-1.708 2.957a1.95 1.95 0 0 0 1.689 2.93c.674-.001 1.33-.35 1.692-.976l3.416-5.918a1.952 1.952 0 0 0-.714-2.667zM19.874 47.54a1.95 1.95 0 0 0-2.667.712l-3.416 5.918a1.948 1.948 0 0 0 .715 2.667 1.953 1.953 0 0 0 2.667-.714l1.707-2.958v-.001l1.708-2.958a1.95 1.95 0 0 0-.714-2.667v.001zm40.058-25.56a1.952 1.952 0 0 0-2.39-1.38l-6.599 1.768a1.952 1.952 0 1 0 1.01 3.77l3.3-.883 3.298-.884a1.953 1.953 0 0 0 1.381-2.391zM8.047 33.862L1.448 35.63a1.954 1.954 0 0 0-1.38 2.39 1.953 1.953 0 0 0 2.39 1.38l6.599-1.768a1.953 1.953 0 1 0-1.01-3.77zm48.075 8.966l-5.918-3.416a1.95 1.95 0 0 0-2.928 1.688c0 .676.35 1.331.977 1.694l5.918 3.416a1.952 1.952 0 0 0 1.951-3.382zm-44.375-25.62L8.789 15.5V15.5l-2.96-1.708a1.954 1.954 0 0 0-2.928 1.688c0 .676.35 1.33.977 1.694l5.916 3.416c.308.176.644.26.975.26a1.95 1.95 0 0 0 1.954-1.95c0-.674-.35-1.33-.976-1.692zm26.77 37.034l-.885-3.3a1.952 1.952 0 1 0-3.77 1.01l1.768 6.6a1.952 1.952 0 1 0 3.77-1.01l-.883-3.3zM22.367 9.058a1.953 1.953 0 1 0 3.771-1.01l-1.768-6.6a1.953 1.953 0 1 0-3.77 1.01l1.767 6.6zm7.632 32.54c-6.395 0-11.597-5.202-11.597-11.598 0-6.395 5.202-11.598 11.597-11.598 6.396 0 11.599 5.203 11.599 11.598 0 6.396-5.203 11.599-11.599 11.599zm0-27.1c-8.547 0-15.501 6.954-15.501 15.502 0 8.549 6.954 15.503 15.501 15.503 8.548 0 15.503-6.954 15.503-15.503 0-8.548-6.955-15.503-15.503-15.503z"/>
</svg>
