<svg xmlns="http://www.w3.org/2000/svg" width="24" height="35" viewBox="0 0 24 35">
    <path fill="#FFF" fill-rule="evenodd" d="M15.86 34.743c-.072 0-.14-.002-.206-.004-3.368-.107-6.64-2.72-7.447-5.948-.372-1.49-.707-5.257 4.218-8.093a1.819 1.819 0 0 1 1.814 3.152c-1.403.807-2.978 2.167-2.504 4.058.419 1.677 2.267 3.14 4.035 3.197 2.039.043 3.061-1.773 3.557-3.324.679-2.122 1.174-4.968-.308-6.476-1.64-1.665-5.826-1.856-10.415-.472a1.82 1.82 0 0 1-1.423-3.322c4.098-2.326 6.156-7.751 5.257-11.046-.521-1.914-2.003-2.846-4.33-2.828-1.851.03-3.079.523-3.75 1.51-1.393 2.042-.39 6.016.07 7.247a1.818 1.818 0 1 1-3.405 1.274c-.25-.665-2.36-6.623.33-10.57C2.72 1.092 4.973.05 8.05.001L8.24 0c3.948 0 6.751 2 7.708 5.507.927 3.402-.08 7.508-2.315 10.784 2.82-.117 5.916.366 7.978 2.464 2.213 2.25 2.61 5.659 1.181 10.132-1.664 5.21-5.257 5.856-6.932 5.856"/>
</svg>
