<svg xmlns="http://www.w3.org/2000/svg" width="81" height="65" viewBox="0 0 81 65">
    <path fill="#FFF" fillRule="evenodd" d="M27.898 55.425c.562 0 1.115.18 1.574.519 3.24 2.387 7.062 3.652 11.053 3.652 4.991 0 9.684-1.946 13.21-5.481a2.603 2.603 0 0 1 2.047-.773l.301.02c.308.02.618.045.931.045 10.293 0 18.667-8.375 18.667-18.668 0-6.2-3.071-11.985-8.216-15.468a2.644 2.644 0 0 1-1.023-1.338A18.66 18.66 0 0 0 48.795 5.306c-3.771 0-7.404 1.122-10.51 3.243a2.65 2.65 0 0 1-2.658.194 18.463 18.463 0 0 0-8.151-1.896c-10.254 0-18.625 8.343-18.662 18.597a2.653 2.653 0 0 1-.437 1.45 18.582 18.582 0 0 0-3.071 10.242c0 10.293 8.373 18.666 18.666 18.666 1.114 0 2.24-.109 3.442-.332.16-.03.322-.045.484-.045m12.627 9.476c-4.753 0-9.315-1.39-13.265-4.03-1.12.16-2.205.237-3.288.237C10.753 61.108 0 50.355 0 37.136A23.86 23.86 0 0 1 3.524 24.64C3.986 11.833 14.57 1.541 27.476 1.541c3.137 0 6.19.61 9.095 1.81A23.838 23.838 0 0 1 48.795 0c9.944 0 18.822 6.148 22.365 15.386a23.956 23.956 0 0 1 9.826 19.353c0 13.219-10.753 23.973-23.972 23.973-.135 0-.272-.003-.405-.008-4.416 4.005-10.081 6.197-16.084 6.197"/>
</svg>
