<svg xmlns="http://www.w3.org/2000/svg" width="73" height="80" viewBox="0 0 73 80">
    <path fill="#FFF" fillRule="evenodd" d="M18.414 74.673a5.136 5.136 0 1 0 10.273 0c0-2.837-5.137-9.806-5.137-9.806s-5.136 6.969-5.136 9.806m32.824-27.309c-.277 0-.55-.02-.822-.04l-.234-.016c-.772-.071-1.513.231-2.053.772a16.004 16.004 0 0 1-11.399 4.73c-3.442 0-6.74-1.09-9.534-3.15a2.647 2.647 0 0 0-2.06-.474 16.063 16.063 0 0 1-2.968.286c-8.88 0-16.104-7.224-16.104-16.104 0-3.146.917-6.202 2.65-8.836.283-.43.434-.934.437-1.449.032-8.847 7.254-16.044 16.1-16.044 2.436 0 4.802.55 7.03 1.636.857.42 1.872.345 2.66-.194a16.002 16.002 0 0 1 9.066-2.798A16.099 16.099 0 0 1 59.23 16.577a2.652 2.652 0 0 0 1.023 1.339 16.102 16.102 0 0 1 7.088 13.346c0 8.879-7.224 16.102-16.104 16.102m12.71-33.333C60.76 5.828 52.855.377 44.006.377a21.277 21.277 0 0 0-10.781 2.914 21.095 21.095 0 0 0-7.976-1.557c-11.498 0-20.933 9.145-21.387 20.546A21.307 21.307 0 0 0 .759 33.368c0 11.806 9.603 21.41 21.409 21.41.918 0 1.86-.066 2.814-.195a21.2 21.2 0 0 0 11.748 3.533c5.318 0 10.34-1.926 14.27-5.45.079.002.159.004.238.004 11.806 0 21.41-9.603 21.41-21.408 0-6.82-3.236-13.198-8.7-17.231"/>
</svg>
