<svg xmlns="http://www.w3.org/2000/svg" width="60" height="74" viewBox="0 0 60 74">
    <path fill="#FFF" fill-rule="evenodd" d="M49.665 68.307H2.8a2.653 2.653 0 0 0 0 5.306h46.865a2.654 2.654 0 0 0 0-5.306m4.421-12.918H7.221a2.653 2.653 0 0 0 0 5.306h46.865a2.654 2.654 0 0 0 0-5.306M9.812 19.976a2.65 2.65 0 0 0 .437-1.45c.024-6.545 5.368-11.87 11.914-11.87 1.804 0 3.553.405 5.202 1.21a2.647 2.647 0 0 0 2.657-.196 11.863 11.863 0 0 1 6.708-2.069 11.91 11.91 0 0 1 11.264 8.062A2.658 2.658 0 0 0 49.018 15a11.918 11.918 0 0 1 5.244 9.875c0 6.57-5.345 11.914-11.916 11.914-.197 0-.392-.015-.589-.028l-.195-.015a2.63 2.63 0 0 0-2.05.773 11.833 11.833 0 0 1-8.433 3.5c-2.547 0-4.985-.807-7.055-2.331a2.647 2.647 0 0 0-2.06-.474c-.766.144-1.484.213-2.197.213-6.57 0-11.915-5.347-11.915-11.917 0-2.327.677-4.587 1.96-6.535m9.955 23.757c.669 0 1.353-.044 2.047-.128a17.045 17.045 0 0 0 9.265 2.721c4.199 0 8.169-1.493 11.304-4.23 9.479-.02 17.185-7.738 17.185-17.22a17.21 17.21 0 0 0-6.86-13.757A17.217 17.217 0 0 0 36.73.296c-2.972 0-5.854.756-8.42 2.199a16.977 16.977 0 0 0-6.147-1.145c-9.199 0-16.755 7.275-17.198 16.373a17.13 17.13 0 0 0-2.418 8.788c0 9.496 7.725 17.222 17.22 17.222"/>
</svg>
