<svg xmlns="http://www.w3.org/2000/svg" width="43" height="51" viewBox="0 0 43 51">
    <path fill="#FFF" fillRule="evenodd" d="M25.696 6.273c-10.792 0-19.57 8.779-19.57 19.57 0 10.793 8.778 19.572 19.57 19.572 3.471 0 6.88-.933 9.856-2.667a24.776 24.776 0 0 1-6.628-16.905c0-6.333 2.381-12.33 6.63-16.903a19.619 19.619 0 0 0-9.858-2.667m0 44.448C11.978 50.721.82 39.561.82 25.843.82 12.126 11.978.967 25.696.967c5.72 0 11.306 1.992 15.73 5.61a2.654 2.654 0 0 1 .002 4.109 19.51 19.51 0 0 0-7.198 15.157 19.515 19.515 0 0 0 7.198 15.16 2.652 2.652 0 0 1-.001 4.108 24.923 24.923 0 0 1-15.731 5.61"/>
</svg>
