<svg xmlns="http://www.w3.org/2000/svg" width="83" height="79" viewBox="0 0 83 79">
    <path fill="#FFF" fill-rule="evenodd" d="M61.872 14.175a2.654 2.654 0 0 0 3.624-.97l3.427-5.938a2.654 2.654 0 0 0-4.595-2.653l-1.714 2.967-1.713 2.97a2.654 2.654 0 0 0 .97 3.624zm20.887 8.764a2.65 2.65 0 0 0-3.25-1.874l-6.62 1.775a2.655 2.655 0 0 0-1.966 2.56c0 .228.03.46.093.69a2.654 2.654 0 0 0 3.25 1.874l6.62-1.774a2.655 2.655 0 0 0 1.873-3.25zm-4.146 20.495l-5.934-3.426a2.649 2.649 0 0 0-3.624.969 2.65 2.65 0 0 0 .968 3.624l5.937 3.428a2.648 2.648 0 0 0 3.98-2.295 2.65 2.65 0 0 0-1.327-2.3zM25.508 18.9l5.936 3.426a2.652 2.652 0 0 0 2.651-4.595l-5.935-3.425a2.653 2.653 0 0 0-2.652 4.594zm18.225-8.563a2.653 2.653 0 0 0 2.56 1.969c.227 0 .46-.03.689-.093a2.652 2.652 0 0 0 1.875-3.248l-1.773-6.62a2.652 2.652 0 1 0-5.125 1.372l1.774 6.62zm14.232 30.039a18.95 18.95 0 0 0-1.238-1.035c-.083-.063-.154-.138-.238-.2a20.45 20.45 0 0 0-.552-1.256c-.062-.129-.131-.253-.196-.38-.14-.278-.284-.554-.436-.822-.085-.148-.174-.292-.262-.436a19.801 19.801 0 0 0-.75-1.147 19.19 19.19 0 0 0-.5-.673c-.105-.134-.209-.268-.317-.4a19.102 19.102 0 0 0-.57-.658c-.104-.116-.205-.234-.311-.345a19.154 19.154 0 0 0-.736-.732c-.07-.067-.136-.137-.206-.202a19.47 19.47 0 0 0-1.008-.865c-.082-.066-.168-.125-.25-.188a18.89 18.89 0 0 0-.814-.601c-.127-.089-.26-.171-.39-.257a14.79 14.79 0 0 0-1.173-.71 18.037 18.037 0 0 0-1.957-.952c-.155-.065-.31-.133-.467-.193a21.037 21.037 0 0 0-.854-.303c-.137-.045-.27-.096-.408-.138a19.49 19.49 0 0 0-1.291-.35l-.084-.018c-.374-.085-.75-.162-1.132-.224a10.917 10.917 0 0 1 10.235-7.066c6.033 0 10.942 4.91 10.942 10.943 0 3.764-1.93 7.217-5.037 9.208zm-12.9 27.902c-.23 0-.456-.019-.682-.034l-.228-.016a2.633 2.633 0 0 0-2.05.774 13.712 13.712 0 0 1-9.773 4.054c-2.953 0-5.78-.935-8.176-2.703a2.655 2.655 0 0 0-2.063-.472c-.886.166-1.717.247-2.542.247-7.615 0-13.81-6.196-13.81-13.81 0-2.7.785-5.32 2.272-7.577.283-.43.435-.935.437-1.45.027-7.586 6.221-13.758 13.807-13.758 2.089 0 4.117.472 6.028 1.403.857.42 1.872.345 2.66-.193a13.713 13.713 0 0 1 7.604-2.394c.08 0 .159-.003.17-.007a13.806 13.806 0 0 1 13.055 9.344 2.644 2.644 0 0 0 1.022 1.339 13.841 13.841 0 0 1 2.656 2.367c.01.012.022.02.033.03a13.787 13.787 0 0 1 3.39 9.047c0 7.613-6.195 13.809-13.81 13.809zm23.242-37.11c0-8.958-7.288-16.248-16.247-16.248-7.55 0-13.95 5.142-15.735 12.269a18.957 18.957 0 0 0-7.094 2.37 18.822 18.822 0 0 0-6.974-1.331c-10.239 0-18.645 8.121-19.094 18.26a19.028 19.028 0 0 0-2.728 9.83c0 10.54 8.575 19.115 19.116 19.115.781 0 1.582-.053 2.394-.159a18.915 18.915 0 0 0 10.387 3.088c4.706 0 9.15-1.69 12.645-4.779h.088c10.54 0 19.116-8.575 19.116-19.114 0-3.583-1.023-7.016-2.839-9.979 4.307-3 6.965-7.94 6.965-13.322z"/>
</svg>
