<svg xmlns="http://www.w3.org/2000/svg" width="71" height="68" viewBox="0 0 71 68">
    <path fill="#FFF" fillRule="evenodd" d="M63.807 30.328a13.038 13.038 0 0 1-4.157 1.238c-.008-.011-.019-.02-.028-.031a19.41 19.41 0 0 0-1.557-1.75c-.047-.046-.089-.097-.135-.143a19.037 19.037 0 0 0-1.877-1.613 18.74 18.74 0 0 0-.744-1.633c-.092-.181-.189-.358-.284-.534a19.648 19.648 0 0 0-.612-1.036c-.118-.187-.23-.378-.355-.561-.29-.426-.598-.84-.92-1.24-.193-.238-.399-.465-.603-.694a20.045 20.045 0 0 0-1.221-1.261c-.149-.14-.305-.27-.46-.404a18.638 18.638 0 0 0-1.413-1.124c-.185-.134-.368-.268-.557-.394a17.229 17.229 0 0 0-1.59-.947c-.271-.145-.54-.292-.818-.424a18.884 18.884 0 0 0-1.37-.584c-.08-.031-.154-.07-.233-.101.7-6.616 6.313-11.786 13.112-11.786 2.059 0 4.031.46 5.824 1.348a18.421 18.421 0 0 0-4.285 11.838c0 4.377 1.53 8.54 4.283 11.836M44.63 57.164c-.23 0-.458-.017-.684-.033l-.226-.016a2.627 2.627 0 0 0-2.048.773 13.723 13.723 0 0 1-9.777 4.055c-2.952 0-5.779-.934-8.174-2.702a2.645 2.645 0 0 0-2.061-.473c-.888.166-1.72.247-2.546.247-7.614 0-13.808-6.196-13.808-13.81 0-2.699.783-5.32 2.27-7.577.283-.43.437-.934.438-1.448.028-7.589 6.22-13.76 13.806-13.76 2.09 0 4.119.473 6.029 1.404a2.661 2.661 0 0 0 2.659-.195 13.733 13.733 0 0 1 7.775-2.399c1.149 0 2.272.146 3.353.418.477.12.942.268 1.398.438.092.033.183.065.274.1.489.194.968.412 1.43.658.029.015.055.032.084.047a14.002 14.002 0 0 1 5.797 5.988l.1.208c.233.482.443.977.618 1.487a2.648 2.648 0 0 0 1.023 1.337c.422.286.817.6 1.2.925.184.158.36.327.536.496a13.07 13.07 0 0 1 1.178 1.261c.043.05.081.102.122.154.262.33.515.673.752 1.03.007.011.016.02.024.029a13.789 13.789 0 0 1 2.267 7.55c0 7.614-6.196 13.808-13.809 13.808m20.2-38.672c0-3.97 1.767-7.694 4.85-10.214a2.65 2.65 0 0 0 0-4.108A18.54 18.54 0 0 0 57.985 0c-9.34 0-17.068 6.969-18.301 15.978a19.001 19.001 0 0 0-10.888 2.468 18.83 18.83 0 0 0-6.976-1.332c-10.237 0-18.643 8.122-19.093 18.262A19.03 19.03 0 0 0 0 45.206C0 55.745 8.574 64.32 19.114 64.32c.782 0 1.583-.053 2.395-.158a18.924 18.924 0 0 0 10.386 3.087 18.98 18.98 0 0 0 12.647-4.78h.088c10.54 0 19.114-8.573 19.114-19.114 0-2.408-.47-4.747-1.318-6.927a18.261 18.261 0 0 0 7.254-3.612 2.651 2.651 0 0 0 0-4.108 13.151 13.151 0 0 1-4.85-10.216"/>
</svg>
