<svg xmlns="http://www.w3.org/2000/svg" width="73" height="87" viewBox="0 0 73 87">
    <path fill="#FFF" fill-rule="evenodd" d="M38.02 63.843a2.654 2.654 0 0 0-2.652 2.652v7.739a2.654 2.654 0 0 0 5.305 0v-7.739a2.654 2.654 0 0 0-2.652-2.652m-15.254-1.547a2.653 2.653 0 0 0-2.652 2.653v18.57a2.654 2.654 0 0 0 5.305 0v-18.57a2.653 2.653 0 0 0-2.653-2.653m28.552-14.85c-.279 0-.552-.021-.825-.041l-.232-.015c-.03-.002-.06.004-.09.002-.03 0-.056-.008-.087-.008-.049 0-.095.012-.144.014a2.412 2.412 0 0 0-.368.037c-.033.007-.062.018-.094.024-.14.033-.278.072-.41.129-.042.017-.08.041-.12.06-.113.055-.227.11-.332.181a2.513 2.513 0 0 0-.407.332l-.001.001a16 16 0 0 1-11.398 4.729c-3.443 0-6.74-1.09-9.535-3.15a2.646 2.646 0 0 0-2.06-.473 16.157 16.157 0 0 1-2.969.286c-8.878 0-16.103-7.225-16.103-16.104 0-3.146.916-6.202 2.65-8.836.282-.43.434-.934.436-1.45.032-8.846 7.256-16.044 16.101-16.044 2.437 0 4.802.55 7.03 1.637.857.419 1.873.345 2.66-.195a16 16 0 0 1 9.065-2.797A16.098 16.098 0 0 1 59.31 16.659a2.657 2.657 0 0 0 1.023 1.339 16.101 16.101 0 0 1 7.09 13.344c0 8.88-7.225 16.104-16.104 16.104m12.708-33.333A21.398 21.398 0 0 0 44.087.459a21.289 21.289 0 0 0-10.782 2.913 21.114 21.114 0 0 0-7.974-1.557c-11.498 0-20.934 9.146-21.389 20.547A21.303 21.303 0 0 0 .838 33.45c0 11.805 9.605 21.41 21.41 21.41.917 0 1.86-.066 2.814-.196a21.201 21.201 0 0 0 11.749 3.532c3.79 0 7.421-.995 10.622-2.832v9.585a2.654 2.654 0 0 0 5.305 0v-12.27c11.143-.737 19.99-10.01 19.99-21.337 0-6.82-3.236-13.196-8.701-17.23"/>
</svg>
