<svg xmlns="http://www.w3.org/2000/svg" width="73" height="87" viewBox="0 0 73 87">
    <path fill="#FFF" fillRule="evenodd" d="M52.339 77.614H49.02l2.347-2.347a1.327 1.327 0 0 0-1.876-1.875l-2.348 2.347v-3.32a1.325 1.325 0 1 0-2.652 0v3.32l-2.347-2.348a1.327 1.327 0 0 0-1.875 1.876l2.346 2.347h-3.318a1.325 1.325 0 1 0 0 2.653h3.318l-2.346 2.348a1.325 1.325 0 0 0 .938 2.264c.34 0 .679-.13.937-.389l2.347-2.347v3.32a1.326 1.326 0 1 0 2.652 0v-3.32l2.348 2.347a1.323 1.323 0 0 0 1.876 0 1.325 1.325 0 0 0 0-1.875l-2.347-2.348h3.319a1.326 1.326 0 1 0 0-2.653zm-.94-30.168c-.276 0-.551-.021-.823-.04l-.232-.016c-.77-.071-1.513.231-2.055.772a16 16 0 0 1-11.397 4.729c-3.443 0-6.74-1.09-9.534-3.15a2.649 2.649 0 0 0-2.06-.473 16.179 16.179 0 0 1-2.968.286c-8.88 0-16.105-7.225-16.105-16.104 0-3.146.916-6.203 2.65-8.836.284-.43.435-.934.437-1.45.032-8.846 7.254-16.043 16.1-16.043 2.437 0 4.803.55 7.031 1.636.857.419 1.872.345 2.658-.195a16.018 16.018 0 0 1 9.067-2.797 16.099 16.099 0 0 1 15.225 10.894 2.644 2.644 0 0 0 1.022 1.339 16.1 16.1 0 0 1 7.088 13.344c0 8.88-7.224 16.104-16.103 16.104zm-22.382 9.326l-.158-.157c.053.021.105.045.158.067v.09zm35.092-42.66A21.4 21.4 0 0 0 44.17.46a21.289 21.289 0 0 0-10.781 2.913 21.12 21.12 0 0 0-7.976-1.556c-11.498 0-20.933 9.145-21.39 20.544A21.324 21.324 0 0 0 .92 33.45c0 11.806 9.604 21.41 21.41 21.41.74 0 1.502-.055 2.269-.139-.285.506-.235 1.149.196 1.58l2.348 2.348h-3.32a1.326 1.326 0 1 0 0 2.652h3.318l-2.346 2.348a1.325 1.325 0 0 0 .938 2.264c.34 0 .679-.13.937-.388l2.348-2.348v3.318a1.325 1.325 0 1 0 2.653 0v-3.318l2.346 2.348a1.323 1.323 0 0 0 1.876 0 1.325 1.325 0 0 0 0-1.876l-2.347-2.348h3.319a1.325 1.325 0 1 0 0-2.652h-3.32l.634-.634a21.258 21.258 0 0 0 16.983-5.266l.239.002c11.805 0 21.409-9.602 21.409-21.409a21.4 21.4 0 0 0-8.7-17.23z"/>
</svg>
