<svg xmlns="http://www.w3.org/2000/svg" width="88" height="89" viewBox="0 0 88 89">
    <path fill="#FFF" fill-rule="evenodd" d="M66.376 5.158a2.848 2.848 0 0 0-3.89 1.042l-2.492 4.316-2.492 4.315a2.845 2.845 0 0 0 1.042 3.89 2.848 2.848 0 0 0 3.89-1.04L67.42 9.05a2.849 2.849 0 0 0-1.042-3.89zm-37.38 64.745a2.844 2.844 0 0 0-3.89 1.04l-4.984 8.634a2.841 2.841 0 0 0 1.042 3.89 2.85 2.85 0 0 0 3.89-1.042l2.493-4.315v-.001l2.492-4.315a2.845 2.845 0 0 0-1.042-3.89zM87.442 32.61a2.849 2.849 0 0 0-3.487-2.013l-9.628 2.58a2.849 2.849 0 0 0 .733 5.6c.245 0 .493-.032.74-.099l4.814-1.288h.001l4.812-1.29a2.849 2.849 0 0 0 2.015-3.49zm-75.7 17.337l-9.629 2.58a2.85 2.85 0 0 0-2.015 3.488 2.849 2.849 0 0 0 3.488 2.013l9.628-2.58a2.849 2.849 0 0 0 2.015-3.488 2.847 2.847 0 0 0-3.488-2.013zm70.14 13.081l-8.633-4.984a2.846 2.846 0 0 0-4.272 2.464c0 .985.51 1.942 1.425 2.47l8.634 4.984a2.847 2.847 0 0 0 2.847-4.934zm-64.744-37.38l-4.314-2.49c-.002 0-.002-.002-.002-.002l-4.316-2.492a2.85 2.85 0 0 0-4.274 2.464 2.85 2.85 0 0 0 1.426 2.47l8.632 4.985c.449.257.939.38 1.422.38a2.845 2.845 0 0 0 2.85-2.845 2.85 2.85 0 0 0-1.424-2.47zm39.06 54.034h-.002l-1.29-4.814a2.848 2.848 0 1 0-5.501 1.474l2.58 9.629a2.847 2.847 0 1 0 5.5-1.474l-1.288-4.815zM32.632 13.758a2.849 2.849 0 1 0 5.503-1.474l-2.58-9.63a2.85 2.85 0 1 0-5.501 1.474l2.578 9.63zM43.77 61.235c-9.33 0-16.921-7.591-16.921-16.923 0-9.33 7.59-16.922 16.92-16.922 9.332 0 16.922 7.592 16.922 16.922 0 9.332-7.59 16.923-16.921 16.923zm0-39.541c-12.47 0-22.617 10.146-22.617 22.618 0 12.473 10.146 22.62 22.617 22.62s22.618-10.147 22.618-22.62c0-12.472-10.147-22.618-22.618-22.618z"/>
</svg>
