<svg xmlns="http://www.w3.org/2000/svg" width="36" height="52" viewBox="0 0 36 52">
    <path fill="#FFF" fillRule="evenodd" d="M23.71 51.657c-.104 0-.204-.002-.3-.005-4.914-.156-9.686-3.97-10.865-8.678-.543-2.173-1.03-7.67 6.154-11.808a2.654 2.654 0 0 1 2.648 4.599c-2.048 1.178-4.345 3.162-3.654 5.92.611 2.447 3.308 4.582 5.887 4.664 2.974.064 4.466-2.586 5.19-4.849.99-3.096 1.713-7.249-.45-9.448-2.392-2.43-8.5-2.708-15.195-.69a2.655 2.655 0 0 1-3.205-1.496 2.651 2.651 0 0 1 1.129-3.35c5.98-3.394 8.98-11.309 7.669-16.117-.76-2.792-2.922-4.151-6.316-4.125-2.702.042-4.493.763-5.473 2.202-2.032 2.98-.569 8.778.103 10.574a2.652 2.652 0 1 1-4.968 1.86c-.365-.972-3.445-9.665.481-15.422C4.54 2.56 7.827 1.04 12.315.968h.276c5.76 0 9.851 2.916 11.247 8.034 1.353 4.964-.116 10.954-3.377 15.734 4.114-.171 8.63.534 11.64 3.594 3.228 3.283 3.808 8.257 1.723 14.784-2.429 7.6-7.67 8.543-10.114 8.543"/>
</svg>
