<svg xmlns="http://www.w3.org/2000/svg" width="148" height="119" viewBox="0 0 148 119">
    <path fill="#FFF" fill-rule="evenodd" d="M50.939 101.201c1.026 0 2.036.327 2.874.947 5.917 4.36 12.894 6.668 20.181 6.668 9.114 0 17.682-3.553 24.12-10.007.988-.989 2.317-1.517 3.739-1.412l.55.036c.561.039 1.128.082 1.7.082 18.793 0 34.082-15.291 34.082-34.085a34.08 34.08 0 0 0-15-28.243 4.828 4.828 0 0 1-1.868-2.444c-4.72-13.79-17.667-23.056-32.222-23.056a33.892 33.892 0 0 0-19.191 5.922 4.837 4.837 0 0 1-4.853.356c-4.716-2.299-9.724-3.463-14.883-3.463-18.723 0-34.007 15.233-34.075 33.956a4.844 4.844 0 0 1-.797 2.647 33.928 33.928 0 0 0-5.609 18.702c0 18.793 15.29 34.082 34.083 34.082 2.034 0 4.09-.198 6.285-.605.293-.056.588-.083.884-.083m23.055 17.302c-8.677 0-17.008-2.538-24.22-7.36a42.048 42.048 0 0 1-6.004.433C19.634 111.576 0 91.943 0 67.806c0-8.081 2.22-15.938 6.435-22.816C7.278 21.605 26.6 2.814 50.168 2.814A43.185 43.185 0 0 1 66.775 6.12 43.525 43.525 0 0 1 89.095 0c18.156 0 34.368 11.225 40.837 28.093a43.742 43.742 0 0 1 17.94 35.337c0 24.136-19.633 43.773-43.77 43.773-.246 0-.496-.005-.74-.015-8.063 7.312-18.406 11.315-29.368 11.315"/>
</svg>
