<svg xmlns="http://www.w3.org/2000/svg" width="132" height="146" viewBox="0 0 132 146">
    <path fill="#FFF" fill-rule="evenodd" d="M32.412 135.657c0 5.18 4.199 9.377 9.377 9.377 5.18 0 9.38-4.197 9.38-9.377 0-5.18-9.38-17.905-9.38-17.905s-9.377 12.724-9.377 17.905m59.933-49.863c-.506 0-1.005-.037-1.502-.073l-.426-.03c-1.41-.13-2.763.422-3.749 1.41-5.558 5.568-12.952 8.637-20.813 8.637-6.285 0-12.306-1.991-17.408-5.752a4.834 4.834 0 0 0-3.762-.865 29.33 29.33 0 0 1-5.42.52c-16.214 0-29.403-13.188-29.403-29.403A29.274 29.274 0 0 1 14.7 44.104a4.862 4.862 0 0 0 .796-2.645c.059-16.153 13.245-29.294 29.397-29.294 4.449 0 8.77 1.005 12.838 2.986a4.83 4.83 0 0 0 4.856-.354 29.217 29.217 0 0 1 16.553-5.11c12.555 0 23.724 7.995 27.798 19.893a4.842 4.842 0 0 0 1.867 2.444 29.401 29.401 0 0 1 12.942 24.368c0 16.212-13.189 29.402-29.403 29.402M115.55 24.93C109.73 9.954 95.299 0 79.14 0a38.85 38.85 0 0 0-19.685 5.32 38.518 38.518 0 0 0-14.562-2.842c-20.995 0-38.222 16.698-39.052 37.514A38.904 38.904 0 0 0 .174 60.238c0 21.557 17.535 39.091 39.091 39.091 1.676 0 3.398-.118 5.14-.353 6.4 4.226 13.772 6.449 21.45 6.449 9.709 0 18.878-3.516 26.054-9.949.145.003.29.005.436.005 21.557 0 39.09-17.534 39.09-39.089a39.069 39.069 0 0 0-15.884-31.462"/>
</svg>
