<svg xmlns="http://www.w3.org/2000/svg" width="109" height="134" viewBox="0 0 109 134">
    <path fill="#FFF" fillRule="evenodd" d="M90.414 124.183H4.844a4.844 4.844 0 0 0 0 9.687h85.57a4.845 4.845 0 0 0 4.844-4.843 4.845 4.845 0 0 0-4.844-4.844m8.072-23.586h-85.57a4.844 4.844 0 0 0 0 9.687h85.57a4.844 4.844 0 0 0 0-9.687m-80.84-64.66a4.839 4.839 0 0 0 .799-2.648c.043-11.952 9.8-21.675 21.753-21.675 3.293 0 6.488.74 9.498 2.208a4.833 4.833 0 0 0 4.851-.356 21.66 21.66 0 0 1 12.25-3.778c9.287 0 17.553 5.914 20.566 14.72.341.996.995 1.85 1.87 2.444a21.76 21.76 0 0 1 9.576 18.03c0 11.996-9.76 21.753-21.758 21.753-.361 0-.717-.026-1.076-.05l-.356-.027a4.802 4.802 0 0 0-3.744 1.412 21.607 21.607 0 0 1-15.398 6.391c-4.65 0-9.101-1.475-12.882-4.258a4.834 4.834 0 0 0-3.76-.864c-1.398.261-2.71.387-4.011.387-11.996 0-21.756-9.762-21.756-21.757 0-4.25 1.236-8.378 3.578-11.933m18.178 43.378c1.22 0 2.47-.08 3.737-.235a31.123 31.123 0 0 0 16.916 4.97c7.668 0 14.916-2.728 20.642-7.726 17.306-.034 31.377-14.127 31.377-31.44a31.425 31.425 0 0 0-12.526-25.12C91.216 7.88 79.688.001 66.797.001c-5.428 0-10.69 1.38-15.377 4.015a30.998 30.998 0 0 0-11.222-2.09c-16.796 0-30.593 13.284-31.402 29.895A31.277 31.277 0 0 0 4.381 47.87c0 17.338 14.105 31.445 31.443 31.445"/>
</svg>
