<svg xmlns="http://www.w3.org/2000/svg" width="76" height="91" viewBox="0 0 76 91">
    <path fill="#FFF" fillRule="evenodd" d="M45.418 9.687c-19.704 0-35.734 16.03-35.734 35.735 0 19.706 16.03 35.736 35.734 35.736a35.82 35.82 0 0 0 17.997-4.87c-7.755-8.353-12.102-19.305-12.102-30.866 0-11.565 4.347-22.514 12.104-30.864a35.822 35.822 0 0 0-17.999-4.87m0 81.158c-25.046 0-45.421-20.378-45.421-45.424C-.003 20.375 20.372 0 45.418 0a45.504 45.504 0 0 1 28.723 10.242 4.847 4.847 0 0 1 .003 7.503C65.79 24.572 61 34.66 61 45.422c0 10.76 4.79 20.85 13.144 27.679a4.843 4.843 0 0 1-.002 7.5 45.508 45.508 0 0 1-28.724 10.245"/>
</svg>
