<svg xmlns="http://www.w3.org/2000/svg" width="151" height="143" viewBox="0 0 151 143">
    <path fill="#FFF" fillRule="evenodd" d="M112.258 25.193a4.847 4.847 0 0 0 6.616-1.773l6.258-10.84a4.845 4.845 0 0 0-1.773-6.616 4.843 4.843 0 0 0-6.616 1.772l-3.13 5.418-3.128 5.422a4.845 4.845 0 0 0 1.773 6.616zm38.139 16.003a4.837 4.837 0 0 0-5.934-3.422l-12.087 3.24a4.848 4.848 0 0 0-3.592 4.675c0 .416.056.84.17 1.26a4.845 4.845 0 0 0 4.674 3.59c.414 0 .838-.055 1.26-.169l12.087-3.238a4.848 4.848 0 0 0 3.422-5.936zm-7.571 37.423l-10.835-6.256a4.837 4.837 0 0 0-6.617 1.768 4.84 4.84 0 0 0 1.768 6.616l10.84 6.26a4.836 4.836 0 0 0 6.616-1.773 4.839 4.839 0 0 0-1.773-6.616h.001zM45.86 33.822l10.84 6.256a4.843 4.843 0 0 0 4.841-8.39l-10.837-6.255a4.845 4.845 0 0 0-7.268 4.19c0 1.675.87 3.3 2.424 4.199zM79.14 18.187a4.845 4.845 0 0 0 4.674 3.594c.414 0 .838-.056 1.257-.17a4.843 4.843 0 0 0 3.425-5.931L85.257 3.593C84.56 1.008 81.905-.53 79.323.168a4.846 4.846 0 0 0-3.592 4.679c0 .414.056.833.168 1.252l3.24 12.088zm25.986 54.847c-.726-.673-1.492-1.289-2.262-1.89-.15-.115-.28-.251-.433-.365-.31-.78-.65-1.543-1.008-2.293-.114-.235-.24-.463-.358-.695a35.321 35.321 0 0 0-.797-1.5c-.155-.27-.317-.532-.477-.796-.269-.444-.543-.88-.828-1.308a35.04 35.04 0 0 0-1.456-2.015c-.191-.245-.38-.49-.579-.731-.336-.41-.685-.807-1.041-1.202-.189-.21-.373-.426-.567-.63-.436-.46-.886-.903-1.344-1.336-.126-.121-.247-.25-.375-.368a35.549 35.549 0 0 0-1.84-1.58c-.151-.12-.308-.227-.459-.343a34.49 34.49 0 0 0-1.484-1.097c-.233-.163-.475-.313-.712-.47-.439-.286-.88-.57-1.327-.836-.27-.16-.54-.312-.814-.462-.436-.245-.877-.48-1.325-.705a30.861 30.861 0 0 0-2.25-1.032c-.283-.118-.566-.242-.852-.35a38.41 38.41 0 0 0-1.56-.556c-.25-.082-.494-.174-.746-.251a35.585 35.585 0 0 0-2.356-.64c-.051-.012-.102-.02-.153-.031a34.3 34.3 0 0 0-2.068-.41 19.933 19.933 0 0 1 18.69-12.9c11.014 0 19.977 8.963 19.977 19.98a19.97 19.97 0 0 1-9.196 16.812zM81.57 123.98c-.418 0-.833-.034-1.244-.06l-.417-.03a4.807 4.807 0 0 0-3.742 1.412c-4.763 4.776-11.101 7.404-17.846 7.404-5.391 0-10.552-1.708-14.928-4.936a4.848 4.848 0 0 0-3.766-.862c-1.618.302-3.137.45-4.643.45-13.904 0-25.216-11.312-25.216-25.216a25.08 25.08 0 0 1 4.148-13.834 4.859 4.859 0 0 0 .8-2.647c.048-13.853 11.358-25.121 25.209-25.121 3.814 0 7.517.862 11.007 2.562a4.836 4.836 0 0 0 4.856-.354 25.039 25.039 0 0 1 13.884-4.371h.002c.146 0 .289-.005.308-.012 10.765 0 20.346 6.856 23.838 17.062.34.995.996 1.855 1.867 2.443a25.273 25.273 0 0 1 4.849 4.323c.02.022.041.037.06.056a25.174 25.174 0 0 1 6.19 16.517c0 13.901-11.312 25.214-25.216 25.214zm42.438-67.759c0-16.357-13.308-29.667-29.665-29.667-13.785 0-25.473 9.39-28.73 22.402a34.614 34.614 0 0 0-12.954 4.328 34.368 34.368 0 0 0-12.734-2.432c-18.695 0-34.044 14.83-34.863 33.342A34.743 34.743 0 0 0 .08 102.142c0 19.246 15.658 34.903 34.904 34.903 1.426 0 2.89-.096 4.371-.29a34.536 34.536 0 0 0 18.966 5.638c8.593 0 16.708-3.086 23.09-8.726h.16c19.246 0 34.903-15.657 34.903-34.901 0-6.541-1.867-12.81-5.183-18.22 7.864-5.478 12.717-14.5 12.717-24.325z"/>
</svg>
