<svg xmlns="http://www.w3.org/2000/svg" width="130" height="123" viewBox="0 0 130 123">
    <path fill="#FFF" fill-rule="evenodd" d="M117.228 55.375a23.806 23.806 0 0 1-7.59 2.262c-.015-.021-.034-.038-.051-.058a35.443 35.443 0 0 0-2.843-3.194c-.085-.085-.163-.177-.247-.262a34.76 34.76 0 0 0-3.427-2.945 34.213 34.213 0 0 0-1.359-2.981c-.167-.332-.344-.654-.518-.976a35.88 35.88 0 0 0-1.117-1.891c-.215-.342-.421-.69-.649-1.025a35.056 35.056 0 0 0-1.68-2.262c-.352-.436-.727-.85-1.1-1.269a36.601 36.601 0 0 0-2.23-2.303c-.272-.254-.557-.492-.838-.736a34.032 34.032 0 0 0-2.582-2.054c-.337-.245-.671-.49-1.017-.72a31.458 31.458 0 0 0-2.904-1.729c-.494-.264-.983-.532-1.492-.772a34.486 34.486 0 0 0-2.502-1.068c-.145-.056-.28-.129-.426-.184 1.279-12.08 11.528-21.52 23.942-21.52 3.76 0 7.36.84 10.635 2.462a33.635 33.635 0 0 0-7.825 21.615 33.63 33.63 0 0 0 7.82 21.61m-35.015 49.001c-.422 0-.836-.031-1.25-.06l-.411-.03a4.796 4.796 0 0 0-3.74 1.413c-4.766 4.773-11.104 7.403-17.851 7.403-5.391 0-10.552-1.705-14.926-4.933a4.829 4.829 0 0 0-3.763-.865c-1.62.303-3.142.45-4.648.45-13.904 0-25.214-11.312-25.214-25.213 0-4.928 1.432-9.714 4.146-13.836a4.845 4.845 0 0 0 .8-2.645c.05-13.855 11.358-25.124 25.209-25.124 3.816 0 7.52.865 11.007 2.565a4.859 4.859 0 0 0 4.856-.356 25.075 25.075 0 0 1 14.196-4.381c2.098 0 4.149.266 6.123.763.87.218 1.72.489 2.552.799.168.06.335.119.5.184.893.354 1.767.75 2.612 1.201.051.027.1.058.153.085a25.567 25.567 0 0 1 10.583 10.935c.063.126.124.254.185.38.423.879.808 1.782 1.128 2.715.34.995.998 1.852 1.867 2.441.77.52 1.492 1.095 2.19 1.688.336.288.658.598.98.906a23.871 23.871 0 0 1 2.151 2.303c.078.092.148.186.223.28.477.604.94 1.229 1.373 1.883.012.019.03.034.044.05 2.644 4.047 4.139 8.806 4.139 13.786 0 13.903-11.313 25.213-25.214 25.213m36.882-70.61c0-7.252 3.228-14.05 8.857-18.651a4.844 4.844 0 0 0 0-7.5A33.851 33.851 0 0 0 106.598 0C89.544 0 75.434 12.724 73.182 29.173a34.695 34.695 0 0 0-19.88 4.507 34.38 34.38 0 0 0-12.737-2.431c-18.692 0-34.042 14.829-34.863 33.344A34.747 34.747 0 0 0 .722 82.54c0 19.244 15.656 34.901 34.902 34.901 1.426 0 2.89-.097 4.371-.288a34.554 34.554 0 0 0 18.966 5.636c8.593 0 16.71-3.083 23.092-8.726h.16c19.244 0 34.901-15.655 34.901-34.901 0-4.398-.857-8.668-2.407-12.65a33.343 33.343 0 0 0 13.245-6.594 4.843 4.843 0 0 0 0-7.5c-5.629-4.602-8.857-11.403-8.857-18.654"/>
</svg>
