<svg xmlns="http://www.w3.org/2000/svg" width="132" height="157" viewBox="0 0 132 157">
    <path fill="#FFF" fill-rule="evenodd" d="M68.006 115.732a4.845 4.845 0 0 0-4.844 4.844v14.129a4.845 4.845 0 0 0 4.844 4.844 4.845 4.845 0 0 0 4.844-4.844v-14.129a4.845 4.845 0 0 0-4.844-4.844m-27.851-2.824a4.844 4.844 0 0 0-4.844 4.844v33.906a4.845 4.845 0 0 0 4.844 4.844 4.845 4.845 0 0 0 4.844-4.844v-33.906a4.844 4.844 0 0 0-4.844-4.844m52.132-27.114c-.508 0-1.007-.04-1.506-.075l-.424-.027c-.055-.005-.109.007-.164.002-.054 0-.102-.014-.158-.014-.09 0-.174.022-.264.026-.228.01-.45.025-.67.068-.061.012-.115.032-.173.044-.256.06-.508.13-.75.235-.076.031-.143.075-.218.111-.206.1-.415.199-.606.33a4.59 4.59 0 0 0-.743.605s-.003 0-.003.002c-5.558 5.568-12.95 8.634-20.81 8.634-6.288 0-12.308-1.988-17.411-5.752a4.832 4.832 0 0 0-3.761-.862c-1.885.349-3.657.52-5.42.52-16.212 0-29.404-13.19-29.404-29.403a29.274 29.274 0 0 1 4.839-16.134 4.864 4.864 0 0 0 .797-2.647c.058-16.151 13.247-29.295 29.398-29.295 4.45 0 8.767 1.006 12.836 2.989a4.83 4.83 0 0 0 4.856-.356A29.215 29.215 0 0 1 79.08 9.687c12.555 0 23.727 7.995 27.798 19.893a4.852 4.852 0 0 0 1.867 2.444 29.4 29.4 0 0 1 12.945 24.366c0 16.212-13.192 29.404-29.404 29.404m23.204-60.864C109.674 9.951 95.242 0 79.081 0c-6.97 0-13.72 1.83-19.685 5.318a38.553 38.553 0 0 0-14.56-2.843c-20.995 0-38.224 16.701-39.054 37.517A38.898 38.898 0 0 0 .115 60.238c0 21.555 17.536 39.091 39.09 39.091 1.676 0 3.398-.118 5.14-.356a38.712 38.712 0 0 0 21.452 6.45 38.83 38.83 0 0 0 19.394-5.171v17.5a4.844 4.844 0 0 0 9.687 0V95.348c20.347-1.344 36.5-18.278 36.5-38.958a39.067 39.067 0 0 0-15.887-31.46"/>
</svg>
