<svg xmlns="http://www.w3.org/2000/svg" width="132" height="158" viewBox="0 0 132 158">
    <path fill="#FFF" fillRule="evenodd" d="M93.945 140.878h-6.06l4.285-4.286a2.42 2.42 0 0 0 0-3.425 2.424 2.424 0 0 0-3.425 0l-4.287 4.287v-6.062a2.421 2.421 0 1 0-4.844 0v6.062l-4.284-4.287a2.424 2.424 0 0 0-3.424 0 2.42 2.42 0 0 0 0 3.425l4.284 4.286h-6.06a2.42 2.42 0 0 0-2.421 2.422 2.42 2.42 0 0 0 2.422 2.422h6.06l-4.285 4.287a2.42 2.42 0 0 0 0 3.424c.472.472 1.092.71 1.712.71.62 0 1.24-.238 1.712-.71l4.285-4.287v6.062a2.421 2.421 0 1 0 4.843 0v-6.062l4.287 4.287c.472.472 1.092.71 1.712.71.62 0 1.24-.238 1.713-.71a2.42 2.42 0 0 0 0-3.424l-4.285-4.287h6.06a2.421 2.421 0 1 0 0-4.844zM92.23 85.794c-.506 0-1.007-.04-1.504-.073l-.424-.03c-1.407-.13-2.763.422-3.751 1.41-5.558 5.568-12.95 8.634-20.811 8.634-6.287 0-12.308-1.988-17.408-5.752a4.837 4.837 0 0 0-3.761-.862c-1.887.349-3.66.52-5.42.52-16.215 0-29.406-13.19-29.406-29.403a29.268 29.268 0 0 1 4.839-16.134 4.846 4.846 0 0 0 .799-2.647c.058-16.151 13.245-29.292 29.396-29.292 4.449 0 8.77 1.005 12.838 2.986a4.825 4.825 0 0 0 4.854-.356 29.247 29.247 0 0 1 16.555-5.108c12.555 0 23.725 7.995 27.798 19.893.34.996.995 1.855 1.867 2.444a29.397 29.397 0 0 1 12.943 24.366c0 16.214-13.192 29.404-29.404 29.404zm-40.868 17.028l-.289-.286c.097.038.192.082.289.12v.166zm64.074-77.892C109.616 9.951 95.185 0 79.026 0c-6.97 0-13.72 1.83-19.684 5.318a38.562 38.562 0 0 0-14.563-2.84c-20.995 0-38.221 16.698-39.055 37.511A38.935 38.935 0 0 0 .057 60.24c0 21.556 17.537 39.09 39.094 39.09 1.351 0 2.741-.1 4.141-.252-.52.923-.429 2.098.358 2.885l4.287 4.286h-6.062a2.421 2.421 0 1 0 0 4.844h6.06l-4.285 4.287a2.42 2.42 0 0 0 0 3.424c.473.472 1.093.71 1.713.71.62 0 1.24-.238 1.712-.71l4.287-4.286v6.059a2.421 2.421 0 1 0 4.844 0v-6.06l4.283 4.287c.473.472 1.093.71 1.713.71.62 0 1.24-.238 1.712-.71a2.42 2.42 0 0 0 0-3.424l-4.284-4.287h6.06a2.42 2.42 0 0 0 2.421-2.422 2.42 2.42 0 0 0-2.422-2.422h-6.062l1.158-1.157c1.635.208 3.286.332 4.955.332 9.71 0 18.876-3.517 26.054-9.947.143.003.288.005.436.005 21.554 0 39.09-17.534 39.09-39.09 0-12.452-5.908-24.096-15.884-31.46z"/>
</svg>
