<svg xmlns="http://www.w3.org/2000/svg" width="64" height="93" viewBox="0 0 64 93">
    <path fill="#FFF" fillRule="evenodd" d="M43.138 92.555c-.19 0-.373-.004-.547-.01-8.973-.285-17.687-7.248-19.84-15.845-.99-3.967-1.881-14.006 11.238-21.56a4.846 4.846 0 0 1 6.614 1.78 4.847 4.847 0 0 1-1.78 6.617c-3.74 2.15-7.934 5.774-6.672 10.811 1.116 4.466 6.04 8.365 10.75 8.515 5.43.116 8.154-4.722 9.474-8.854 1.81-5.653 3.13-13.235-.82-17.25-4.367-4.438-15.52-4.946-27.745-1.26a4.847 4.847 0 0 1-5.851-2.732 4.84 4.84 0 0 1 2.06-6.118c10.918-6.197 16.399-20.648 14.004-29.427-1.388-5.098-5.336-7.58-11.533-7.532-4.933.077-8.203 1.392-9.993 4.02-3.71 5.442-1.039 16.028.19 19.307a4.843 4.843 0 1 1-9.072 3.395c-.667-1.772-6.29-17.645.878-28.158C8.136 2.909 14.137.134 22.333.002 22.501 0 22.67 0 22.835 0c10.518 0 17.987 5.326 20.535 14.671 2.47 9.063-.21 20-6.166 28.728 7.512-.312 15.759.976 21.254 6.564 5.895 5.994 6.953 15.075 3.146 26.993-4.434 13.877-14.006 15.6-18.467 15.6"/>
</svg>
